<svg xmlns="http://www.w3.org/2000/svg" xmlns:xlink="http://www.w3.org/1999/xlink" version="1.1" id="Layer_1" x="0px" y="0px" width="100px" height="100px" viewBox="5.0 -10.0 100.0 135.0" enable-background="new 0 0 100 100" xml:space="preserve">
<path fill="#000000" d="M50,90c-0.551,0-1.105-0.113-1.627-0.346C46.93,89.012,46,87.58,46,86V58.981L32.676,70.974  c-1.642,1.477-4.171,1.346-5.649-0.298c-1.478-1.642-1.345-4.171,0.298-5.649L44.02,50L27.324,34.973  c-1.643-1.478-1.775-4.007-0.298-5.649c1.479-1.642,4.009-1.773,5.649-0.297L46,41.019V14c0-1.58,0.93-3.011,2.373-3.654  c1.441-0.643,3.129-0.375,4.303,0.681l20,18C73.518,29.785,74,30.866,74,32s-0.482,2.215-1.324,2.973L55.979,50l16.696,15.026  C73.518,65.785,74,66.866,74,68s-0.482,2.215-1.324,2.974l-20,18C51.927,89.647,50.969,90,50,90z M54,58.981v18.037L64.02,68  L54,58.981z M54,22.981v18.037L64.02,32L54,22.981z"/>
</svg>
