<?xml version="1.0" encoding="utf-8"?>
<!-- Generated by IcoMoon.io -->
<!DOCTYPE svg PUBLIC "-//W3C//DTD SVG 1.1//EN" "http://www.w3.org/Graphics/SVG/1.1/DTD/svg11.dtd">
<svg version="1.1" xmlns="http://www.w3.org/2000/svg" xmlns:xlink="http://www.w3.org/1999/xlink" width="29" height="32" viewBox="0 0 29 32">
<path fill="#444444" d="M13.265 31.733c-0.217 0-0.435-0.044-0.641-0.136-0.568-0.253-0.935-0.817-0.935-1.44v-10.644l-5.249 4.724c-0.647 0.582-1.643 0.53-2.225-0.117s-0.53-1.643 0.117-2.225l6.577-5.92-6.577-5.92c-0.647-0.582-0.699-1.578-0.117-2.225s1.579-0.698 2.225-0.117l5.249 4.724v-10.644c0-0.622 0.366-1.186 0.935-1.44s1.233-0.148 1.695 0.268l7.879 7.091c0.332 0.299 0.522 0.724 0.522 1.171s-0.19 0.872-0.522 1.171l-6.578 5.92 6.577 5.919c0.332 0.299 0.522 0.725 0.522 1.172s-0.19 0.872-0.522 1.172l-7.879 7.091c-0.295 0.265-0.672 0.404-1.054 0.404zM14.841 19.513v7.105l3.947-3.553-3.947-3.553zM14.841 5.332v7.105l3.947-3.553-3.947-3.553z"></path>
</svg>
