<?xml version="1.0" encoding="utf-8"?>
<!-- Generated by IcoMoon.io -->
<!DOCTYPE svg PUBLIC "-//W3C//DTD SVG 1.1//EN" "http://www.w3.org/Graphics/SVG/1.1/DTD/svg11.dtd">
<svg version="1.1" xmlns="http://www.w3.org/2000/svg" xmlns:xlink="http://www.w3.org/1999/xlink" width="29" height="32" viewBox="0 0 29 32">
<path fill="#444444" d="M15.11 31.914h-2.847c-1.015 0-2.136-1.21-2.455-1.578l-4.667-5.627-0.406-3.445c-0.55-0.951-3.043-5.286-3.409-6.384-0.421-1.263 1.338-3.858 2.521-5.405 0.947-8.204 10.431-9.080 10.528-9.088l0.734-0.067v31.594zM6.581 24.089l4.373 5.355c0.441 0.507 1.086 1.126 1.316 1.126h2.505l-0.336-28.57c-0.672 0.154-2.912 0.49-4.322 1.187-2.899 1.435-4.514 3.671-4.797 6.648l-0.021 0.217-0.133 0.172c-1.349 1.741-2.474 3.705-2.408 4.203 0.252 0.75 2.145 4.132 3.355 6.216l0.078 0.134 0.391 3.311z"></path>
<path fill="#444444" d="M10.030 21.831c-0.028 0-0.056 0.050-0.084 0.044-0.221-0.051-5.438-1.241-7.372-3.175-1-1-1.505-2.087-1.5-3.257 0.007-1.924 1.396-3.308 1.455-3.366 0.072-0.071 0.167-0.105 0.264-0.105 0.037 0 0.075 0.007 0.112 0.019 0.105 0.033 0.189 0.111 0.232 0.21 0.098 0.107 1.098 1.125 7.849 1.125 1.029 0 2.158 0.103 3.355 0.103 0.004 0 0.008 0 0.012 0 0.097 0 0.046-0.125 0.116-0.057 0.074 0.071-0.031 0.006-0.031 0.107v8.084c0 0.207 0.123 0.269-0.085 0.269h-4.324z"></path>
<path fill="#444444" d="M9.95 22.212l-0.082-0.009c-0.933-0.216-5.646-1.378-7.533-3.265-1.066-1.065-1.604-2.241-1.599-3.496 0.007-2.059 1.492-3.543 1.556-3.605 0.18-0.177 0.44-0.253 0.714-0.167 0.171 0.053 0.315 0.17 0.404 0.326 0.189 0.158 1.479 0.993 7.576 0.993 0.503 0 1.020 0.024 1.567 0.049 0.523 0.024 1.061 0.049 1.613 0.053l0.018-0.049 0.254-0.027c0.097 0 0.187 0.039 0.265 0.115 0.136 0.132 0.14 0.265 0.119 0.353l-0.048 0.187v7.893c0 0.027 0.006 0.048 0.014 0.078 0.018 0.067-0.226 0.302-0.054 0.372 0.376 0.155-0.302 0.155-0.38 0.155h-4.229c-0.044 0.024-0.102 0.045-0.174 0.045zM2.804 12.311l-0.040 0.005c-0.055 0.054-1.348 1.346-1.355 3.128-0.004 1.069 0.468 2.084 1.402 3.018 1.705 1.705 6.176 2.839 7.088 3.057 0.037-0.015 0.080-0.025 0.13-0.025h4.072v-7.732c-0.549-0.006-1.072-0.030-1.58-0.053-0.539-0.025-1.048-0.048-1.536-0.048-6.282 0-7.754-0.863-8.096-1.233l-0.038-0.042-0.022-0.052c-0.005-0.011-0.014-0.020-0.025-0.023z"></path>
<path fill="#444444" d="M14.017 21.495h-4.324c-0.041 0-0.084 0.143-0.125 0.134-0.225-0.052-5.497-1.213-7.464-3.179-1.036-1.036-1.56-2.145-1.555-3.367 0.007-2.008 1.45-3.428 1.511-3.488 0.147-0.145 0.369-0.189 0.565-0.127 0.143 0.045 0.261 0.149 0.33 0.281 0.151 0.132 1.365 0.982 7.694 0.982 0.496 0 1.015 0.009 1.554 0.017 0.579 0.009 1.181 0.018 1.801 0.018 0.032 0 0.051-0.004 0.070-0.007 0.159-0.030 0.28 0.020 0.334 0.073l-0.035 0.032c0.069 0.058 0.064 0.127 0.064 0.279v8.084c0 0.311-0.11 0.269-0.421 0.269zM2.456 11.827c-0.049 0-0.096 0.020-0.132 0.054-0.057 0.056-1.392 1.388-1.399 3.24-0.004 1.118 0.482 2.173 1.445 3.136 1.891 1.891 7.062 2.974 7.281 3.024 0.013 0.003 0.028-0.123 0.042-0.123h4.324c0.103 0 0.085 0.171 0.085 0.068v-8.073c0-0.011 0.027-0.021 0.017-0.030-0.008 0.002 0.009 0.004-0 0.005-0.041 0.008-0.071 0.015-0.114 0.015-0.635 0-1.232-0.009-1.813-0.018-0.537-0.008-1.051-0.016-1.545-0.016-6.457 0-7.745-0.855-7.986-1.117l-0.033-0.052c-0.022-0.050-0.064-0.088-0.116-0.104-0.018-0.006-0.037-0.009-0.056-0.009z"></path>
<path fill="#444444" d="M9.536 21.831l-0.040 0.059c-1.349-0.308-5.791-1.399-7.629-3.236-1.118-1.118-1.659-2.281-1.654-3.589 0.007-2.096 1.448-3.557 1.612-3.718 0.229-0.225 0.584-0.303 0.9-0.204 0.199 0.063 0.372 0.199 0.487 0.378 0.224 0.15 1.601 0.874 7.437 0.874 0.44 0 0.898 0.007 1.372 0.014l0.292 0.005c0.545 0.008 1.11 0.017 1.691 0.017 0.063-0.012 0.115-0.016 0.164-0.016 0.184 0 0.357 0.064 0.473 0.175l0.26 0.249-0.133 0.121c0.005 0.054 0.005 0.108 0.005 0.157v8.11c0 0.402-0.196 0.607-0.584 0.607l-0.173-0.002h-4.165c-0.060 0.069-0.149 0-0.28 0h-0.037zM2.44 12.248c-0.32 0.36-1.174 1.454-1.179 2.875-0.004 1.025 0.449 2 1.347 2.897 1.258 1.258 4.338 2.303 6.874 2.88 0.073-0.064 0.155-0.077 0.212-0.077h4.072v-7.344c-0.544-0.002-1.061-0.010-1.566-0.017-0.548-0.008-1.060-0.016-1.553-0.016-6.059 0-7.745-0.737-8.207-1.197z"></path>
<path fill="#444444" d="M5.894 9.719c0 0-0.003-0.174 0.039-0.477 0.023-0.151 0.052-0.334 0.1-0.542 0.025-0.104 0.052-0.214 0.080-0.33 0.032-0.116 0.077-0.233 0.117-0.359 0.076-0.253 0.202-0.51 0.318-0.789 0.144-0.265 0.271-0.562 0.466-0.83 0.092-0.137 0.18-0.282 0.281-0.418 0.108-0.132 0.216-0.266 0.326-0.401 0.106-0.138 0.227-0.265 0.355-0.386l0.376-0.373c0.272-0.225 0.55-0.444 0.829-0.65 0.295-0.183 0.584-0.366 0.872-0.526 0.297-0.143 0.588-0.273 0.863-0.397 0.28-0.111 0.555-0.19 0.802-0.276 0.124-0.041 0.244-0.080 0.357-0.117 0.114-0.035 0.228-0.049 0.331-0.073 0.208-0.042 0.39-0.079 0.539-0.109 0.298-0.056 0.469-0.088 0.469-0.088s-0.165 0.055-0.453 0.152c-0.144 0.046-0.319 0.102-0.52 0.166-0.203 0.056-0.421 0.15-0.66 0.248-0.237 0.101-0.501 0.195-0.766 0.322-0.26 0.14-0.532 0.287-0.818 0.431-0.275 0.163-0.544 0.357-0.828 0.533-0.266 0.202-0.531 0.416-0.791 0.635l-0.365 0.355c-0.124 0.115-0.242 0.235-0.345 0.367-0.109 0.127-0.217 0.253-0.323 0.378-0.102 0.128-0.19 0.265-0.284 0.393-0.194 0.255-0.336 0.529-0.494 0.777-0.129 0.263-0.27 0.505-0.359 0.746-0.101 0.236-0.185 0.457-0.253 0.655-0.070 0.198-0.117 0.375-0.157 0.521-0.076 0.292-0.103 0.464-0.103 0.464z"></path>
<path fill="#444444" d="M7.774 22.126c0.167 0.329 0.323 0.663 0.471 1s0.289 0.675 0.423 1.017c0.271 0.682 0.522 1.371 0.752 2.068l-0.012-0.026c0.18 0.318 0.353 0.64 0.521 0.966s0.327 0.656 0.477 0.992c-0.226-0.29-0.442-0.587-0.65-0.888s-0.411-0.605-0.607-0.914l-0.006-0.009-0.007-0.017c-0.271-0.682-0.522-1.371-0.752-2.068-0.117-0.348-0.226-0.698-0.329-1.051s-0.197-0.709-0.281-1.068z"></path>
<path fill="#444444" d="M17.496 32.022c-0.514 0-1.139-0.044-1.676-0.131l-0.709-0.1v-31.471l1.052-0.003c1.881 0 8.253 0.614 10.701 8.521l0.408 1.266 1.053 0.685 0.083 0.105c0.315 0.423 1.154 2.678-1.323 13.947l-0.082 0.384-0.979 0.408c-0.559 1.358-3.002 6.389-8.527 6.389zM17.127 30.484c0.336 0.022 0.313 0.034 0.554 0.034 5.319 0 7.159-5.647 7.177-5.704l0.062-0.326 0.846-0.361c1.972-9.093 1.621-11.708 1.483-12.274l-1.188-0.778-0.36-1.785c-1.96-6.333-6.893-7.329-8.574-7.454v28.647z"></path>
<path fill="#444444" d="M15.783 1.072c0 0 8.739-1.88 8.739 10.151v8.648c0 0 0.672 6.015-8.739 5.264v-24.062z"></path>
<path fill="#444444" d="M25.445 11.223c0 0 0.024 0.194 0.052 0.534 0.025 0.341 0.069 0.827 0.093 1.412 0.022 0.585 0.055 1.267 0.058 1.999 0.006 0.732-0.005 1.512-0.036 2.293-0.014 0.39-0.041 0.78-0.065 1.164-0.018 0.384-0.066 0.761-0.096 1.126s-0.088 0.716-0.13 1.049c-0.045 0.333-0.105 0.646-0.151 0.935-0.043 0.29-0.115 0.551-0.165 0.783s-0.105 0.434-0.155 0.597c-0.099 0.327-0.155 0.514-0.155 0.514s0.033-0.192 0.091-0.528c0.034-0.167 0.069-0.37 0.095-0.606s0.072-0.498 0.101-0.789c0.029-0.29 0.070-0.603 0.095-0.935s0.051-0.683 0.079-1.046c0.046-0.726 0.094-1.502 0.121-2.278 0.039-0.776 0.054-1.553 0.077-2.282 0.018-0.729 0.035-1.41 0.049-1.994 0.026-1.169 0.043-1.948 0.043-1.948z"></path>
<path fill="#444444" d="M23.564 23.63c-0.224 0.224-0.453 0.44-0.69 0.647s-0.477 0.408-0.722 0.604l0.039-0.044c-0.129 0.249-0.257 0.514-0.364 0.78-0.114 0.265-0.209 0.537-0.296 0.811-0.037 0.138-0.080 0.276-0.11 0.416-0.036 0.14-0.055 0.281-0.083 0.423-0.012 0.142-0.039 0.287-0.039 0.432-0.012 0.147 0.007 0.29 0.009 0.441-0.049-0.14-0.1-0.284-0.121-0.433-0.035-0.149-0.040-0.3-0.048-0.453-0.001-0.303 0.035-0.608 0.102-0.903 0.065-0.297 0.165-0.583 0.276-0.863 0.12-0.278 0.245-0.548 0.411-0.81l0.018-0.029 0.021-0.015c0.256-0.18 0.517-0.355 0.781-0.524s0.536-0.329 0.814-0.481z"></path>
<path fill="#444444" d="M14.774 31.578h1.008v0.336h-1.008v-0.336z"></path>
<path fill="#444444" d="M19.056 2.658c0 0 0.283-0.090 0.727-0.066 0.111 0.001 0.23 0.023 0.356 0.041 0.123 0.030 0.258 0.050 0.388 0.101 0.133 0.041 0.268 0.095 0.399 0.162 0.135 0.059 0.256 0.148 0.386 0.221 0.119 0.089 0.237 0.181 0.349 0.275 0.105 0.102 0.206 0.204 0.3 0.307 0.084 0.11 0.166 0.216 0.244 0.316 0.072 0.104 0.128 0.21 0.184 0.304 0.119 0.185 0.17 0.365 0.225 0.479 0.049 0.118 0.073 0.186 0.073 0.186s-0.044-0.059-0.116-0.163c-0.073-0.103-0.163-0.258-0.302-0.422-0.068-0.083-0.134-0.176-0.212-0.269-0.082-0.089-0.168-0.183-0.257-0.28-0.096-0.089-0.196-0.181-0.296-0.274-0.107-0.086-0.218-0.169-0.33-0.251-0.119-0.070-0.23-0.157-0.355-0.213-0.121-0.063-0.241-0.126-0.364-0.17-0.119-0.054-0.242-0.086-0.356-0.127-0.117-0.027-0.226-0.064-0.33-0.080-0.416-0.088-0.709-0.077-0.709-0.077z"></path>
<path fill="#444444" d="M11.413 25.864h3.361v0.672h-3.361v-0.672z"></path>
</svg>
