<svg xmlns="http://www.w3.org/2000/svg" xmlns:xlink="http://www.w3.org/1999/xlink" version="1.1" id="Layer_1" x="0px" y="0px" width="100px" height="100px" viewBox="5.0 -10.0 100.0 135.0" enable-background="new 0 0 100 100" xml:space="preserve">
<g>
	<circle cx="50" cy="32.322" r="6.429"/>
	<circle cx="69.286" cy="51.608" r="6.428"/>
	<circle cx="30.714" cy="51.608" r="6.428"/>
	<path d="M88.571,64.465c3.55,0,6.429,2.879,6.429,6.429c0,3.547-2.879,6.429-6.429,6.429s-6.429-2.882-6.429-6.429   C82.143,67.344,85.021,64.465,88.571,64.465z"/>
	<path d="M11.428,64.465c3.55,0,6.429,2.878,6.429,6.429c0,3.547-2.879,6.428-6.429,6.428S5,74.44,5,70.894   C5,67.343,7.878,64.465,11.428,64.465z"/>
	<circle cx="50" cy="48.394" r="6.429"/>
	<path d="M69.286,61.251c3.55,0,6.428,2.878,6.428,6.429c0,3.547-2.878,6.428-6.428,6.428c-3.551,0-6.429-2.881-6.429-6.428   C62.857,64.129,65.735,61.251,69.286,61.251z"/>
	<path d="M30.714,61.251c3.55,0,6.429,2.878,6.429,6.428c0,3.547-2.879,6.429-6.429,6.429c-3.551,0-6.43-2.882-6.43-6.429   C24.285,64.129,27.164,61.251,30.714,61.251z"/>
	<path d="M88.571,80.536c3.55,0,6.429,2.879,6.429,6.429c0,3.547-2.879,6.429-6.429,6.429s-6.429-2.882-6.429-6.429   C82.143,83.415,85.021,80.536,88.571,80.536z"/>
	<path d="M11.428,80.536c3.55,0,6.429,2.879,6.429,6.429c0,3.547-2.879,6.429-6.429,6.429S5,90.512,5,86.965   C5,83.415,7.878,80.536,11.428,80.536z"/>
	<circle cx="50" cy="13.037" r="6.428"/>
	<path d="M69.286,25.894c3.55,0,6.428,2.879,6.428,6.429c0,3.547-2.878,6.429-6.428,6.429c-3.551,0-6.429-2.882-6.429-6.429   C62.857,28.772,65.735,25.894,69.286,25.894z"/>
	<path d="M30.714,25.894c3.55,0,6.429,2.879,6.429,6.429c0,3.547-2.879,6.429-6.429,6.429c-3.551,0-6.429-2.882-6.429-6.429   C24.286,28.772,27.164,25.894,30.714,25.894z"/>
	<circle cx="88.571" cy="51.608" r="6.428"/>
	<circle cx="11.428" cy="51.608" r="6.428"/>
</g>
</svg>
