<svg xmlns="http://www.w3.org/2000/svg" xmlns:xlink="http://www.w3.org/1999/xlink" version="1.1" id="Layer_1" x="0px" y="0px" viewBox="2.45 -4.9 49.0 66.15" enable-background="new 0 0 49 49" xml:space="preserve" height="100px" width="100px">
<path fill-rule="evenodd" clip-rule="evenodd" d="M6.1,10.8c-1.5,0-2.8,1.2-2.8,2.8v22.2c0,1.5,1.2,2.8,2.8,2.8h37.9  c1.5,0,2.8-1.2,2.8-2.8V13.6c0-1.5-1.2-2.8-2.8-2.8H6.1z M8.5,14.2l16.5,10.3l16.5-10.1c0.4-0.2,0.9-0.1,1.2,0.3  c0.3,0.4,0.1,0.9-0.3,1.2L25.9,26c-0.3,0.2-0.7,0.4-1,0.4c-0.3,0-0.7-0.2-1-0.4L7.5,15.6c-0.4-0.2-0.5-0.7-0.3-1.2  C7.5,14.1,8.1,13.9,8.5,14.2z"/>
</svg>
