<svg xmlns="http://www.w3.org/2000/svg" xmlns:xlink="http://www.w3.org/1999/xlink" version="1.1" id="Layer_1" x="0px" y="0px" viewBox="2.45 -4.9 49.0 66.15" enable-background="new 0 0 49 49" xml:space="preserve" height="100px" width="100px">
<path fill-rule="evenodd" clip-rule="evenodd" d="M11.2,8.9c-1.2-0.4-2.4,0.2-2.8,1.3l-6,16.6C2,28,2.6,29.2,3.7,29.6l6.8,2.5  L8.2,18.5c-0.2-1.2,0.6-2.3,1.8-2.6l3-0.5L11,12.9c-0.2-0.3-0.2-0.7,0.1-0.9c0.3-0.2,0.7-0.2,1,0.1l2.4,3l9.3-1.7L11.2,8.9z   M25,37.3l7.1,2.6c1.1,0.4,2.4-0.2,2.8-1.3l1.2-3.2L25,37.3z M11,16.6c-1.2,0.2-2,1.4-1.8,2.6l3.1,17.4c0.2,1.2,1.4,2,2.6,1.8  L44.5,33c1.2-0.2,2-1.4,1.8-2.6L43.2,13c-0.2-1.2-1.4-2-2.6-1.8L11,16.6z M13.3,18.9l14.3,5.7l11.5-10.3c0.3-0.2,0.7-0.2,1,0.1  c0.3,0.3,0.2,0.7,0,0.9L28.6,25.8c-0.2,0.2-0.5,0.4-0.7,0.4c-0.2,0.1-0.6,0-0.8-0.1l-14.3-5.8c-0.3-0.1-0.5-0.5-0.4-0.9  C12.5,19,12.9,18.8,13.3,18.9z"/>
</svg>
