<svg xmlns="http://www.w3.org/2000/svg" xmlns:xlink="http://www.w3.org/1999/xlink" version="1.0" id="Layer_1" x="0px" y="0px" width="32px" height="32px" viewBox="1.6 -3.2 32.0 43.2" enable-background="new 0 0 32 32" xml:space="preserve">
<g>
	<path d="M9.262,15.451l6.745-6.799l6.743,6.799c0.746,0.746,1.953,0.746,2.699,0c0.745-0.754,0.745-1.972,0-2.726l-8.094-8.155   c-0.746-0.746-1.954-0.746-2.698,0l-8.094,8.155c-0.746,0.754-0.744,1.972,0,2.726C7.309,16.197,8.516,16.197,9.262,15.451z"/>
	<path d="M17.355,16.568c-0.746-0.746-1.954-0.746-2.698,0l-8.094,8.154c-0.746,0.754-0.744,1.973,0,2.727   c0.746,0.746,1.953,0.746,2.699,0l6.745-6.8l6.743,6.8c0.746,0.746,1.953,0.746,2.699,0c0.745-0.754,0.745-1.973,0-2.727   L17.355,16.568z"/>
</g>
<g>
</g>
<g>
</g>
<g>
</g>
<g>
</g>
<g>
</g>
<g>
</g>
<g>
</g>
<g>
</g>
<g>
</g>
<g>
</g>
<g>
</g>
<g>
</g>
<g>
</g>
<g>
</g>
<g>
</g>
</svg>
