<?xml version="1.0" encoding="utf-8"?>
<!-- Generated by IcoMoon.io -->
<!DOCTYPE svg PUBLIC "-//W3C//DTD SVG 1.1//EN" "http://www.w3.org/Graphics/SVG/1.1/DTD/svg11.dtd">
<svg version="1.1" xmlns="http://www.w3.org/2000/svg" xmlns:xlink="http://www.w3.org/1999/xlink" width="45" height="32" viewBox="0 0 45 32">
<path fill="#444444" d="M27.409 26.234c0 2.959-2.399 5.358-5.358 5.358s-5.358-2.399-5.358-5.358c0-2.959 2.399-5.358 5.358-5.358s5.358 2.399 5.358 5.358z"></path>
<path fill="#444444" d="M43.425 10.756c-0.046-0.063-0.095-0.125-0.142-0.189-4.764-6.437-12.397-10.621-21.019-10.621v0c-8.622 0-16.256 4.184-21.019 10.621-0.046 0.063-0.095 0.125-0.142 0.189-0.031 0.069-0.048 0.143-0.048 0.224 0 0.107 0.038 0.201 0.089 0.285l0.144 0.157 3.165 3.453c0.047 0.116 0.136 0.205 0.245 0.266 0.081 0.047 0.171 0.080 0.271 0.080 0.148 0 0.28-0.060 0.379-0.153 0.037-0.052 0.074-0.103 0.111-0.154 3.713-5.033 9.846-8.336 16.805-8.336s13.092 3.302 16.804 8.336c0.037 0.051 0.075 0.101 0.111 0.154 0.1 0.092 0.232 0.153 0.379 0.153 0.101 0 0.189-0.034 0.271-0.080 0.108-0.061 0.197-0.15 0.245-0.266l3.309-3.61c0.051-0.085 0.089-0.178 0.089-0.285 0-0.081-0.018-0.156-0.048-0.224z"></path>
<path fill="#444444" d="M36.015 17.55c-2.978-3.702-8.006-6.147-13.732-6.147s-10.753 2.444-13.732 6.147c-0.073 0.091-0.146 0.181-0.217 0.275-0.020 0.057-0.036 0.116-0.036 0.18 0 0.075 0.016 0.145 0.042 0.211 0.049 0.12 0.143 0.215 0.257 0.275l3.122 3.349c0.096 0.080 0.216 0.134 0.352 0.134 0.086 0 0.165-0.023 0.237-0.058 0.023-0.010 0.041-0.028 0.062-0.042 0.045-0.030 0.086-0.062 0.121-0.103 0.007-0.009 0.020-0.014 0.028-0.023 1.609-2.022 5.261-4.351 9.763-4.351s8.154 2.328 9.763 4.351c0.007 0.009 0.020 0.014 0.028 0.023 0.035 0.041 0.077 0.073 0.121 0.103 0.022 0.014 0.039 0.032 0.062 0.042 0.073 0.035 0.152 0.058 0.237 0.058 0.136 0 0.255-0.054 0.352-0.134l0.084-0.091 3.038-3.258c0.114-0.061 0.207-0.155 0.257-0.275 0.027-0.066 0.042-0.136 0.042-0.211 0-0.063-0.016-0.123-0.036-0.18-0.070-0.094-0.143-0.184-0.216-0.275z"></path>
<path fill="#444444" d="M80.057 11.751c-0.031-0.042-0.062-0.082-0.092-0.123-3.109-4.201-8.091-6.931-13.718-6.931v0c-5.627 0-10.61 2.731-13.718 6.931-0.031 0.041-0.062 0.081-0.092 0.123-0.020 0.045-0.031 0.093-0.031 0.146 0 0.070 0.024 0.131 0.058 0.186l0.094 0.102 2.066 2.254c0.031 0.076 0.089 0.134 0.159 0.174 0.053 0.031 0.112 0.052 0.177 0.052 0.096 0 0.183-0.039 0.248-0.099 0.025-0.034 0.048-0.067 0.073-0.1 2.423-3.285 6.425-5.44 10.967-5.44s8.545 2.155 10.967 5.44c0.025 0.033 0.048 0.066 0.073 0.1 0.065 0.060 0.151 0.099 0.248 0.099 0.066 0 0.124-0.022 0.177-0.052 0.070-0.040 0.129-0.098 0.159-0.174l2.16-2.356c0.034-0.055 0.058-0.116 0.058-0.186 0-0.052-0.011-0.101-0.031-0.146z"></path>
</svg>
