<?xml version="1.0" encoding="utf-8"?>
<!-- Generated by IcoMoon.io -->
<!DOCTYPE svg PUBLIC "-//W3C//DTD SVG 1.1//EN" "http://www.w3.org/Graphics/SVG/1.1/DTD/svg11.dtd">
<svg version="1.1" xmlns="http://www.w3.org/2000/svg" xmlns:xlink="http://www.w3.org/1999/xlink" width="1024" height="1024" viewBox="0 0 1024 1024"><g id="icomoon-ignore">
</g>
<path d="M332.224 722.445c-20.507-4.753-46.451-11.286-61.506-15.869-7.159-0.999-14.326-2.71-21.174-5.023-15.879-5.377-31.885-10.606-47.255-17.235-19.246-8.316-37.875-18.015-55.452-29.529-2.333-1.542-4.739-3.052-6.783-4.928-3.658-3.334-7.854-3.981-12.483-3.263-3.011 0.468-6.011 0.959-8.918 1.429l-10.421-2.47c-0.834-0.375-1.709-0.541-2.25-1.053-11.93-11.231-22.361-23.526-27.692-39.375-0.813-2.419-1.636-4.698-3.554-6.533-8.586-8.202-11.744-18.826-12.993-30.164-1.666-15.286-3.429-30.572-4.553-45.9-1.823-24.913-1.365-49.743 4.209-74.261 0.802-3.544 1.832-7.034 2.812-10.525 1.595-5.751 4.054-11.034 8.428-15.222 1.886-1.803 3.031-3.898 3.544-6.49 2.687-13.669 9.703-24.871 19.692-34.375 1.417-1.354 2.751-2.803 4.242-4.062 2.419-2.033 3.908-4.543 5.084-7.511 11.98-30.321 27.809-58.558 46.597-85.16 3.928-5.573 8.504-10.408 15.61-11.93 1.044-0.218 1.979-0.886 3.917-1.792-3.167-0.813-5.44-1.396-8.211-2.105 0.093-1.709-0.049-3.345 0.313-4.856 6.241-26.143 13.742-51.869 25.017-76.365 9.983-21.672 21.923-42.157 36.238-61.247 7.886-10.525 16.287-20.58 25.382-30.122 20.173-21.193 43.95-37.053 70.196-49.546 15.704-7.47 31.749-13.961 48.898-17.338 1.076-0.218 2.177-0.239 3.272-0.292 0.209 0 0.427 0.27 1.149 0.782-1.044 0.968-1.917 1.971-2.958 2.72-9.816 7.002-18.901 14.851-27.602 23.193-2.374 2.282-5.347 3.981-8.169 5.751-10.901 6.824-22.141 13.14-32.729 20.423-27.611 19.027-49.347 43.606-66.624 72.25-2.74 4.553-5.804 8.908-8.471 13.495-2.388 4.105-4.753 8.261-6.616 12.617-10.973 25.465-20.516 51.43-26.403 78.595-0.23 1.031-0.033 2.156-0.033 3.375 2.958 1.76 5.887 1.365 9.368 0.491 2.668-10.638 5.347-21.364 8.055-32.196 2.553 0.959 1.429 2.429 1.345 3.594-0.082 1.387-0.427 2.772-0.438 4.157 0 1.345 0.292 2.687 0.438 3.793 1.865 0.823 2.511-0.209 2.836-1.222 0.667-2.125 1.134-4.315 1.677-6.471 1.886-7.596 3.719-15.202 5.667-22.777 1.365-5.282 3.752-9.825 8.596-12.942 2.051-1.314 3.857-3.313 5.188-5.377 3.793-5.866 7.231-11.962 10.919-17.9 1.907-3.083 3.991-6.066 6.075-9.024 7.898-11.231 16.993-21.412 26.612-31.239 10.408-10.616 21.578-20.257 33.031-29.654 6.264-5.148 13.099-9.834 18.39-15.859 5.595-6.355 11.911-10.534 19.83-13.126 3.407-1.117 6.698-2.572 10.221-3.5 7.272-1.948 14.619-3.834 21.578-6.638 5.388-2.17 10.273-5.626 15.286-8.659 4.553-2.751 8.95-5.721 13.441-8.564 14.598-9.263 30.977-14.086 47.366-18.808 3.49-1.013 7.044-1.783 10.565-2.687 8.94-2.301 17.891-4.408 27.239-4.543 4.73-0.065 9.432-1.176 14.161-1.365 10.17-0.416 10.856 1.447 11.023 10.138 0.333 17.338 0.917 34.677 0.948 52.015 0.093 38.324-0.082 76.637-0.166 114.97-0.008 6.712-0.177 13.432-0.166 20.14 0.049 64.894 0.125 129.785 0.166 194.68 0 6.387-0.261 12.776-0.396 18.777-1.865 2.53-4.261 2.125-6.419 2.125-13.14 0.015-26.299 0.218-39.438-0.146-17.922-0.491-35.761-0.198-53.63 1.542-25.082 2.437-50.252 3.002-75.418 1.076-6.406-0.491-12.793-1.406-19.131-2.449-9.689-1.595-19.424-2.282-29.24-2.388-14.547-0.157-29.092-0.261-43.606-0.865-29.165-1.222-57.849-5.918-86.221-12.608-4.627-1.084-9.306-1.958-13.91-3.127-4.596-1.157-9.263-2.21-13.669-3.908-8.348-3.208-16.61-6.658-24.746-10.388-3.222-1.479-5.98-3.937-9.482-6.305-0.771 1.511-1.823 2.615-1.823 3.742-0.008 4.18 0.209 8.378 0.565 12.546 0.52 6.126 1.333 12.221 1.854 18.358 1.013 12.086 4.565 23.556 8.471 34.925 3.19 9.315 5.263 18.819 6.126 28.621 1.792 20.329 3.604 40.648 5.659 60.942 0.501 4.983 2.115 9.825 3.011 14.785 2.437 13.473 4.785 26.966 8.93 40.073 0.927 2.918 1.447 5.939 0.99 8.971-4.917 3.272-11.579-0.239-16.003 4.785l13.317 14.659c16.139 13.275 34.228 23.193 53.536 30.977 32.779 13.242 66.506 23.151 101.236 29.883 41.846 8.075 83.991 13.201 126.609 13.951 30.758 0.541 61.528 0.718 92.295 1.084 3.023 0.033 6.066 0.135 8.7 0.209 1.666-0.333 2.419 1.458 2.419 1.458 0.27 2.115-0.323 7.159-0.343 8.481-0.135 7.241-0.408 14.493-0.689 21.735-0.040 1.093-0.364 2.187-0.635 3.658-1.5 0.458-3.031 1.333-4.573 1.333-21.809 0.033-43.626-0.065-65.435-0.146-1.354-0.008-23.662-3.294-25.131-3.48l-16.879-4.397-77.895-20.017zM75.925 438.565c2.897-6.295 5.626-12.692 8.742-18.88 3.2-6.324 6.011-12.973 12.076-18.629 0.427 1.948 0.865 2.938 0.823 3.917-0.114 3.052-0.438 6.116-0.605 9.167-0.593 10.574-1.19 21.151-1.709 31.717-0.049 1.263-0.25 2.886 2.21 3.375 2.105-13.796 4.221-27.54 4.95-41.45 0.218-4.117-0.565-8.303-1.117-12.429-0.114-0.865-1.176-2.063-2.001-2.25-0.865-0.209-2.105 0.427-2.918 1.053-0.855 0.646-1.429 1.697-2.074 2.603-6.034 8.408-11.223 17.295-15.108 26.914-1.865 4.627-3.759 9.253-3.272 14.891z"></path>
<path d="M401.794 746.15c12.576 3.407 15.629 4.271 22.382 5.314 7.366 1.573 13.877 2.242 20.412 2.668 21.934 0.876 35.738 1.263 53.64 0.125 7.742-0.501 15.588 0.541 22.725 0.855 2.877 2.462 2.347 5.108 2.347 7.576-0.008 21.82-0.073 43.639-0.065 65.444 0 6.991 0.105 13.982 0.283 20.964 0.040 1.897 0.541 3.759 0.895 6.075 2.47 0.218 4.637 0.614 6.795 0.541 30.467-0.968 60.967-1.49 91.317-4.658 3.064-0.313 6.126-0.709 9.201-0.791 21.923-0.689 43.324-4.866 64.612-9.775 14.734-3.399 29.1-8.034 43.146-13.669 1.783-0.709 3.687-1.093 5.563-1.573 0.166-0.049 0.438 0.313 0.823 0.646-0.218 0.655-0.27 1.573-0.75 2.115-1.314 1.439-2.687 2.865-4.242 4.033-7.605 5.691-10.513 14.264-13.829 22.548-0.491 1.23-0.565 2.772-0.408 4.117 1.084 9.263-2.462 17.569-5.334 25.985-0.906 2.636-2.323 5.096-3.222 7.732-3.95 11.638-7.804 23.33-11.68 34.989-0.354 1.076-0.855 2.115-0.981 3.208-0.166 1.583-0.593 3.544 0.105 4.73 1.124 1.917 3.586 1.74 5.324 0.906 2.74-1.291 5.306-3.011 7.784-4.753 2.419-1.689 4.271-4.333 8.303-4.357-0.209 1.99-0.065 3.687-0.593 5.148-4.679 12.858-5.845 21.174-10.659 33.997-0.771 2.074-2.772 10.421-2.772 10.421l-0.981 5.866c-6.157 5.055-17.087 10.814-23.747 13.681-23.048 9.911-47.096 15.712-72.092 18.006-12.836 1.176-25.673 1.657-38.521 1.657-41.117 0.008-82.243-0.157-123.357 0.033-13.275 0.065-26.153-1.886-38.853-5.523-6.447-1.845-12.961-3.458-19.381-5.417-2.603-0.802-7.69-4.033-7.69-4.033l-8.513-8.45c0 0-13.742-12.89-15.848-15.1-10.991-11.546-14.38-15.222-25.237-26.893-7.224-7.763-14.296-15.682-21.422-23.507l-64.884-75.301c-11.733-14.547-22.308-30.039-33.258-45.201-8.971-12.429-14.734-26.28-17.702-41.293-3.793-19.172-7.493-38.373-11.2-57.546-0.895-4.668-1.74-9.336-2.545-14.024-0.468-2.71-1.013-5.449 0.427-8.564 1.689 0.408 3.326 0.593 4.771 1.207 29.132 12.366 59.048 22.316 89.9 29.373zM522.58 858.201l-10.233-0.25c-9.23-0.065-17.371 0.049-26.601-0.125-15.919-0.302-31.852-0.782-47.773-1.149-2.228-0.040-4.48-0.015-6.698 0.198-2.355 0.23-3.562 1.387-3.702 3.772-0.292 5.023-0.48 10.056-0.48 15.087 0 3.24 1.19 4.565 4.261 5.324 1.614 0.396 3.294 0.614 4.968 0.709 8.365 0.552 16.722 1.281 25.111 1.479 15.933 0.375 31.862 0.458 47.795 0.605 7.732 0.065 10.941 0.532 13.378 0.27l-0.033-25.925z"></path>
<path d="M292.921 666.464c0.189 2.219 0.468 4.448 0.532 6.68 0.049 1.845-1.281 3.222-3.167 3.167-2.502-0.073-5.042-0.209-7.47-0.74-10.365-2.323-20.711-4.739-31.040-7.241-8.471-2.051-16.307-5.74-24.174-9.418-3.677-1.709-5.647-4.333-6.139-8.276-0.771-6.097-1.979-12.169-2.355-18.286-1.666-27.423-7.191-54.296-11.231-81.387-2.355-15.755-3.959-31.582-4.325-47.544-0.386-16.766-1.322-33.498-2.929-50.19-0.343-3.604-0.408-7.272-0.239-10.888 0.166-3.928 1.677-5.428 5.732-5.792 3.898-0.343 7.869-0.834 11.712-0.396 13.889 1.553 27.79 3.19 41.606 5.347 10.638 1.666 11.65 3.052 13.253 13.993 2.187 14.933 4.491 29.861 6.21 44.845 1.19 10.253 1.439 20.621 2.177 30.934 0.948 13.086 1.958 26.174 2.97 39.261 0.655 8.628 1.271 17.276 2.063 25.883 0.855 9.459 1.917 18.901 2.854 28.349 1.374 13.901 2.729 27.8 4.094 41.699-0.049-0.008-0.093 0-0.135 0z"></path>
<path d="M930.836 449.673c-1.124 11.669-2.146 23.35-3.375 35.010-1.73 16.389-3.49 32.779-5.47 49.139-1.76 14.424-3.614 28.832-5.816 43.192-3.586 23.474-7.378 46.918-11.241 70.333-2.877 17.371-6.001 34.688-9.013 52.026-1.573 9.076-3.146 18.161-4.679 27.246-0.938 5.532-2.301 10.741-5.618 15.566-2.478 3.594-3.885 8.023-5.314 12.233-2.668 7.94-5.055 15.974-7.48 23.997-1.053 3.449-2.043 6.94-2.772 10.481-0.572 2.729-1.948 4.553-4.502 5.554-3.554 1.429-6.836 0.105-8.127-3.5-0.565-1.542-0.855-3.272-0.843-4.917 0.015-5.586 0.146-11.182 0.386-16.754 0.302-6.698 0.655-13.389 1.176-20.065 0.718-9.19 1.314-18.4 2.511-27.54 3.574-26.861 7.106-53.723 9.703-80.721 2.156-22.518 5.042-44.971 7.511-67.478 1.429-13.046 2.595-26.11 3.981-39.168 1.149-10.837 2.502-21.642 3.687-32.479 0.938-8.618 1.979-17.221 2.545-25.852 0.855-13.669 1.322-27.35 2.001-41.032s1.396-27.35 2.137-41.032c0.073-1.387 0.157-2.844 0.667-4.105 0.354-0.886 1.374-1.94 2.228-2.074 0.876-0.135 1.958 0.676 2.844 1.23 0.449 0.27 0.729 0.843 1.021 1.314 4.199 6.991 10.023 12.68 15.182 18.901 2.115 2.563 4.117 5.263 5.951 8.034 2.462 3.729 4.48 7.763 7.117 11.346 2.282 3.115 3.282 6.378 3.23 10.138-0.065 3.636-0.008 7.272-0.008 10.901 0.114 0.049 0.25 0.073 0.386 0.082z"></path>
<path d="M866.050 294.972c3.471 0.218 7.034 0.438 11.075 0.697 1.542 4.001 4.614 6.783 8.618 9.126 9.628 5.678 18.868 12.013 28.364 17.922 5.659 3.522 9.878 8.179 12.514 14.276 2.886 6.712 4.885 13.652 4.917 20.808-1.5 2.388-3.208 0.283-4.679 0.667-1.345 0.343-2.668 1.222-3.959 1.165-1.865-0.073-3.843-0.48-5.532-1.271-6.845-3.19-13.586-6.616-20.412-9.834-1.958-0.927-4.084-1.479-6.647-2.374-0.75 1.927-1.709 3.345-1.865 4.866-0.449 4.438-0.855 8.918-0.802 13.378 0.135 12.868 0.408 25.735 0.761 38.605 0.52 19.329-0.959 38.572-2.301 57.83-1.24 17.848-2.502 35.709-4.054 53.536-1.165 13.369-2.595 26.705-4.242 40.031-2.365 18.859-4.928 37.698-7.596 56.515-2.199 15.503-4.565 30.986-7.097 46.43-0.771 4.668-2.199 9.263-3.687 13.765-1.365 4.105-2.729 4.739-6.918 4.189-1.657-0.218-3.304-0.511-4.95-0.886-2.105-0.468-3.24-1.907-3.908-3.937-3.177-9.597-1.291-18.88 2.187-27.842 1.447-3.702 2.521-7.347 2.918-11.255 1.49-14.482 2.938-28.957 4.469-43.43 1.345-12.805 2.844-25.58 4.127-38.382 1.417-14.18 3.083-28.349 2.678-42.657-0.177-5.866 0.093-11.753 0.408-17.621 1.832-34.103 1.053-68.259 1.5-102.385 0.015-1.677-0.146-3.375 0.049-5.033 2.323-19.839-0.105-39.678 0.23-59.517 0.105-6.147-0.049-12.316 0-18.465 0.040-3.407 0.501-6.72 3.834-8.918z"></path>
<path d="M626.513 23.992c1.832 0.261 3.709 0.364 5.49 0.813 24.768 6.367 48.638 14.94 70.622 28.247 4.062 2.462 8.378 4.543 12.38 7.097 5.751 3.677 11.753 2.772 17.827 1.439 1.666-0.375 2.595-2.615 1.625-4.054-1.248-1.832-2.655-3.586-4.18-5.21-7.836-8.419-16.661-15.745-25.758-22.725-18.808-14.391-39.67-25.028-61.819-33.268-27.968-10.408-56.963-16.191-86.555-19.225-6.94-0.709-13.982-0.541-20.964-0.813-2.17-0.082-4.345-0.27-6.471-0.427-0.105-2.292 1.429-1.875 2.323-1.823 13.109 0.782 26.226 1.374 39.291 2.521 22.934 2.021 45.095 7.774 66.705 15.503 34.677 12.441 67.446 28.685 96.059 52.182 24.038 19.755 45.745 41.878 63.966 67.298 7.836 10.941 15.13 22.132 21.338 34.072 1.583 3.052 2.627 6.023 2.751 9.513 0.105 3.031 0.843 6.097 1.709 9.024 2.242 7.501 4.679 14.953 7.106 22.392 0.416 1.281 1.19 2.437 1.783 3.594 4.022 1.304 7.231-1.76 11.565-1.19 15.388 19.016 26.435 40.47 29.902 65.248-1.406 1.709-2.699 0.906-4.033 0.646-2.449-0.491-4.94-0.927-7.421-1.157-6.479-0.593-6.49-0.541-8.419-7.126-1.248-4.302-2.282-8.669-3.759-12.877-2.137-6.066-4.387-12.097-6.991-17.962-1.084-2.462-2.761-5.241-4.958-6.479-3.885-2.187-5.148-5.586-6.52-9.284-4.271-11.523-8.294-23.183-13.099-34.489-9.544-22.475-21.163-43.823-36.833-62.715-4.094-4.928-8.754-9.401-13.234-14.015-0.729-0.761-1.823-1.19-2.545-1.636-2.094 0.541-2.478 1.979-2.115 3.345 2.301 8.303 3.429 17.016 8.578 24.362 1.927 2.74 3.294 5.845 5.075 8.69 12.514 20.007 19.514 42.002 23.526 65.069 0.408 2.374 1.304 4.899-0.655 7.649-0.917-0.501-2.084-0.782-2.655-1.522-4.771-6.168-10.085-11.878-13.586-19.058-3.95-8.096-9.721-15.004-16.587-20.892-1.897-1.625-4.033-3.011-6.157-4.333-1.657-1.031-3.417-1.948-5.23-2.655-15.075-5.887-26.654-16.15-36.165-28.974-4.345-5.836-8.649-11.692-12.973-17.537-3.399-4.596-5.355-9.775-6.084-15.431-0.25-1.948-0.667-3.866-0.823-5.816-0.676-8.981-5.139-15.912-12.076-21.214-5.334-4.062-10.932-7.774-16.577-11.378-5.188-3.304-10.47-6.513-15.919-9.315-6.447-3.313-13.126-6.22-19.755-9.149-2.99-1.333-6.2-2.187-8.7-4.95z"></path>
<path d="M857.589 702.91c-4.271 19.963-7.231 40.157-10.388 60.297-0.52 3.313-1.084 6.638-1.74 9.929-1.24 6.324-1.832 12.66-1.333 19.16 0.261 3.282 0.073 6.762-0.697 9.983-3.345 13.829-6.907 27.611-10.565 41.377-1.73 6.503-4.583 12.555-7.825 18.474-10.763 19.714-23.474 38.043-38.471 54.788-1.053 1.176-2.323 2.156-3.554 3.282-1.595-2.199-0.458-3.803 0.23-5.148 5.428-10.481 8.221-21.965 12.546-32.865 6.324-15.859 10.659-32.321 14.619-48.91 2.772-11.68 6.139-23.224 9.003-34.884 1.062-4.315 1.697-8.775 2.074-13.211 0.323-3.969 1.013-7.732 2.772-11.316 2.823-5.783 5.449-11.65 8.441-17.338 7.795-14.879 15.347-29.842 20.233-45.992 0.865-2.854 1.314-6.147 4.637-7.576l0.015-0.049z"></path>
<path d="M849.991 372.067c0.605 4.117 1.365 8.202 1.783 12.34 2.001 19.797 1.823 39.654 1.75 59.517-0.135 37.791-2.823 75.466-5.732 113.103-1.657 21.463-4.761 42.785-7.126 64.194-0.927 8.334-1.522 16.703-2.449 25.017-0.605 5.263-1.458 10.493-2.397 15.704-0.114 0.626-1.636 1.222-2.563 1.345-0.416 0.049-1.429-1.117-1.417-1.719 0.082-3.614 0.114-7.252 0.646-10.814 1.553-10.513 3.702-20.942 4.968-31.477 3.885-32.497 6.729-65.080 7.927-97.828 0.948-25.728 1.646-51.43 0.927-77.167-0.48-17.338-1.084-34.664-1.23-52.003-0.040-5.523 1.176-11.075 1.958-16.61 0.189-1.304 0.895-2.521 1.374-3.783 0.501 0.065 1.031 0.125 1.573 0.189z"></path>
<path d="M161.156 594.505c-2.563-8.326-3.471-16.91-4.345-25.444-2.333-22.518-4.565-45.045-6.272-67.613-1.657-22.018-2.627-44.085-3.857-66.142-0.157-2.782-0.135-5.586 0-8.365 0.033-0.676 0.709-1.792 1.24-1.886 0.99-0.177 2.282-0.033 3.096 0.501 0.843 0.552 1.511 1.666 1.803 2.668 0.375 1.314 0.364 2.761 0.427 4.149 1.23 29.883 2.228 59.777 3.729 89.649 0.968 19.538 2.636 39.033 4.022 58.546 0.313 4.637 0.709 9.274 0.157 13.942z"></path>
<path d="M853.565 690.8l-2.906 11.398c0 0-4.565 12.535-8.564 19.413-3.23 5.543-5.845 11.462-9.253 16.89-8.013 12.805-17.173 24.787-27.685 35.613-5.251 5.388-11.273 9.991-16.973 14.921-0.27 0.23-0.895 0.073-2.282 0.146 2.242-2.199 3.95-3.928 5.7-5.637 11.795-11.565 22.465-24.069 31.726-37.76 3.95-5.856 6.295-12.441 8.553-19.048 2.71-7.876 5.274-15.807 7.898-23.716l13.785-12.221z"></path>
<path d="M305.948 913.158c4.428 2.545 7.627 6.011 8.596 11.2-1.74-1.971-3.574-3.885-5.188-5.959-1.281-1.646-2.282-3.49-3.407-5.241z"></path>
<path d="M857.578 702.973c-0.218-1.479-0.416-2.948-0.626-4.428 0.209-0.008 0.408-0.040 0.626-0.049 0 1.447 0 2.906 0 4.397 0.008 0.015 0 0.082 0 0.082z"></path>
</svg>
