<svg xmlns="http://www.w3.org/2000/svg" xmlns:xlink="http://www.w3.org/1999/xlink" version="1.1" id="Layer_1" x="0px" y="0px" width="100px" height="100px" viewBox="5.0 -10.0 100.0 135.0" enable-background="new 0 0 100 100" xml:space="preserve">
<g>
	<circle cx="50" cy="67.68" r="6.429"/>
	<circle cx="30.713" cy="48.394" r="6.428"/>
	<circle cx="69.285" cy="48.394" r="6.428"/>
	<path d="M11.428,35.537C7.878,35.537,5,32.658,5,29.108c0-3.547,2.879-6.429,6.429-6.429s6.429,2.882,6.429,6.429   C17.857,32.658,14.978,35.537,11.428,35.537z"/>
	<path d="M88.571,35.537c-3.55,0-6.429-2.878-6.429-6.429c0-3.547,2.879-6.428,6.429-6.428S95,25.562,95,29.108   C95,32.659,92.121,35.537,88.571,35.537z"/>
	<circle cx="50" cy="51.608" r="6.429"/>
	<path d="M30.713,38.751c-3.55,0-6.428-2.878-6.428-6.429c0-3.547,2.878-6.428,6.428-6.428c3.551,0,6.429,2.881,6.429,6.428   C37.142,35.873,34.264,38.751,30.713,38.751z"/>
	<path d="M69.285,38.751c-3.55,0-6.429-2.878-6.429-6.428c0-3.547,2.879-6.429,6.429-6.429c3.551,0,6.43,2.882,6.43,6.429   C75.715,35.873,72.836,38.751,69.285,38.751z"/>
	<path d="M11.428,19.466C7.878,19.466,5,16.587,5,13.037c0-3.547,2.879-6.429,6.429-6.429s6.429,2.882,6.429,6.429   C17.857,16.587,14.978,19.466,11.428,19.466z"/>
	<path d="M88.571,19.466c-3.55,0-6.429-2.879-6.429-6.429c0-3.547,2.879-6.429,6.429-6.429S95,9.49,95,13.037   C95,16.587,92.121,19.466,88.571,19.466z"/>
	<circle cx="50" cy="86.965" r="6.428"/>
	<path d="M30.713,74.108c-3.55,0-6.428-2.879-6.428-6.429c0-3.547,2.878-6.429,6.428-6.429c3.551,0,6.429,2.882,6.429,6.429   C37.142,71.229,34.264,74.108,30.713,74.108z"/>
	<path d="M69.285,74.108c-3.551,0-6.429-2.879-6.429-6.429c0-3.547,2.878-6.429,6.429-6.429s6.429,2.882,6.429,6.429   C75.714,71.229,72.836,74.108,69.285,74.108z"/>
	<circle cx="11.428" cy="48.394" r="6.428"/>
	<circle cx="88.571" cy="48.394" r="6.428"/>
</g>
</svg>
