<svg xmlns="http://www.w3.org/2000/svg" xmlns:xlink="http://www.w3.org/1999/xlink" version="1.0" id="Layer_1" x="0px" y="0px" width="32px" height="32px" viewBox="1.6 -3.2 32.0 43.2" enable-background="new 0 0 32 32" xml:space="preserve">
<g>
	<path d="M22.75,16.569l-6.745,6.799l-6.743-6.799c-0.746-0.746-1.953-0.746-2.699,0c-0.745,0.754-0.745,1.972,0,2.726l8.094,8.154   c0.746,0.746,1.954,0.746,2.698,0l8.095-8.154c0.746-0.754,0.744-1.972,0-2.726C24.703,15.823,23.496,15.823,22.75,16.569z"/>
	<path d="M14.657,15.452c0.746,0.746,1.954,0.746,2.698,0l8.095-8.154c0.746-0.754,0.744-1.973,0-2.727   c-0.746-0.746-1.953-0.746-2.699,0l-6.745,6.8l-6.743-6.8c-0.746-0.746-1.953-0.746-2.699,0c-0.745,0.754-0.745,1.973,0,2.727   L14.657,15.452z"/>
</g>
<g>
</g>
<g>
</g>
<g>
</g>
<g>
</g>
<g>
</g>
<g>
</g>
<g>
</g>
<g>
</g>
<g>
</g>
<g>
</g>
<g>
</g>
<g>
</g>
<g>
</g>
<g>
</g>
<g>
</g>
</svg>
